<?xml version="1.0" encoding="UTF-8"?>
<svg width="1200pt" height="1200pt" version="1.1" viewBox="0 0 1200 1200" xmlns="http://www.w3.org/2000/svg">
 <path d="m1137.3 719.93h-0.57812v-21.145h-8.4961v-53.402h-20.914v30.949h-13.152v-64.223h-27.852v-75.828h-0.76953v-5.7383l-20.891-15.48v11.941h-5.4258v9.2773h-3.8867v101.38h-40.199v-58.812h-13.945v-10.824h-30.938v10.824h-12.395v65.773h-10.824v23.219h-3.875v-88.211h-44.09v92.844h-24.012v-82.957l-37.512-40.453h-9.707v84.711h-44.078v47.988h-13.164v-77.367h-26.305v-149.36h-51.852v20.426l-23.195 31.066v94.777h-19.367v81.227h-20.867v-135.41h-65.016v133.1h-10.836v-99.828h-34.812v99.828h-5.4023v-54.945h-20.133v-44.883h-41.02v97.5h-21.645v-122.25h-48.77v-83.582h-5.4258v83.582h-23.961v62.652h-17.809v46.449h-9.2891v-73.5h-17.809v80.473h-15.469v6.9492h-21.66v-34.043h-13.906v-83.57h-10.078v-13.152h-24.746v13.152h-6.9727v132.32h-41.809v-51.082h-27.07v44.891h-6.9727v-130h-22.402v141.6h-31.754v21.145h-1.4766l0.023438 25.043h1074.5v-25.043z"/>
</svg>
