<?xml version="1.0" encoding="UTF-8"?>
<svg width="1200pt" height="1200pt" version="1.1" viewBox="0 0 1200 1200" xmlns="http://www.w3.org/2000/svg">
 <path d="m1135.2 826.4h-0.14453v-65.34h-45.492v42.254h-15.539v-101.28h-56.879v-154.38h-55.066v-101.48h-11.379v-9.3828h-50.543v9.3828h-13.738v329h-15.984v-125.59l-5.5078-12.184h-57.41l-6.6836 12.184v17.602h-59.59v-98.23h-79.441v98.23h-24.551v37.547h-39v121.67h-6.3359l-4.4883-9-26.727-249.16v-111.96h-9.3945l-12.996-107.62h-5.0625l-13.012 107.62h-9.3828v111.96l-26.723 249.16-4.332 8.6758v-149.51h-28.164v-102.91h-9.7578v-52.008h-17.328l-6.5039-5.4141h-3.25l-5.5586 5.5469h-7.1602l-1.9102-40.355h-0.67188l-1.9336 40.391h-7.6797l-2.1602-40.391h-0.68359l-1.8945 40.355h-7.1758l-5.5547-5.5469h-3.2422l-6.5156 5.4141h-17.34v52.008h-9.7461v252.74h-7.4375v-41.496h-20.594v-108.34h-31.402v149.83h-16.262v-123.84h-41.41v123.84h-21.434v-250.04h-66.609v119.71h-54.184v130.33h-11.492v24.926h1070.5v-24.926z"/>
</svg>
