<?xml version="1.0" encoding="UTF-8"?>
<svg width="1200pt" height="1200pt" version="1.1" viewBox="0 0 1200 1200" xmlns="http://www.w3.org/2000/svg">
 <path d="m1139.6 729.17h-0.85156v-102.05h-45.445v67.617h-9.3125v-10.5h-16.332v10.5h-8.1484v-140.23l-47.77-39.266v179.5h-12.84v-140.23l-47.773-39.266v94.406h-18.648v27.961h-17.34v-117.71h-0.875l-12.219-18.504h-68.23l-12.203 18.504h-0.88672v85.887l-10.742-8.0273h-78.359l-8.5312 6.4062v-32.594h-39.648v43.516h-19.406v27.18h-7.0195v-164.03h-5.4961l-30.168-32.543-30.129 32.543h-8.0078v188.11h-13.211v-34.164h-8.543v-94.02h-5.4375v-17.09h-9.3242v-20.207h-5.4453v20.207h-16.32v17.09h-20.977v61.379h-20.988v-68.363h-37.285v48.156h-43.512v63.719h-26.41v-192.68h-55.945v83.137h-31.859v52.043h-11.664v-77.688h-5.4375v-8.5547h-49.703v-42.734h-2.375v42.734h-9.2891v8.5547h-9.3359v124.32h-8.5312v-53.617h-30.324v91.68h-18.637v-56.711h-17.879v20.195h-20.965v55.164h-43.512v41.953h0.30078l0.023437 23.449h1079v-25.129z"/>
</svg>
