<?xml version="1.0" encoding="UTF-8"?>
<svg width="1200pt" height="1200pt" version="1.1" viewBox="0 0 1200 1200" xmlns="http://www.w3.org/2000/svg">
 <path d="m1137.8 759.17-3.168 0.011719v-20.363h-3.6016v-20.93l3.9102-4.4883v-24.625l-5.0391-22.957-1.6914 19.031h-25.191l-1.6914-19.031-5.0156 22.957v24.625l3.9102 4.4883v20.93h-14.137l0.003906-144.3h-31.078v144.29h-9.6367v-21h-21.469v-41.809h-90.707v41.809h-15.371v16.609h-14.113v-210.45h-7.9219v-24.086h-32.785v24.086h-7.8945v236.48l-10.715 0.046875v-30.371h-21.613v-80.219s2.8555-3.5898 0.91016-7.7031c-0.19141-9.8164-3.0469-48.035-14.832-48.035-1.0781-6.4453-1.4297-9.9961-1.4297-9.9961s3.2148-1.8008 0-5.375c-0.37109-6.7812-2.8555-20.352-5.3633-20.352 0.34766-6.0117 1.0312-8.8555-2.3984-8.5664-3.457-0.28906-2.7734 2.543-2.4258 8.5664-2.5078 0-4.9922 13.57-5.3398 20.352-3.2383 3.5742 0 5.375 0 5.375s-0.37109 3.5508-1.4531 9.9961c-11.785 0-14.629 38.219-14.809 48.035-1.9688 4.1172 0.86328 7.7031 0.86328 7.7031l0.007813 110.89-17.832 0.085938v-114.37h-50.387v62.184h-39.66v32.16h-18.301v-227.52l-6.3945-4.8125v-11.797l-6.1914-3.4805v-9.9102l-5.0898-4.2734v-9.6484l-8.5781-5.6406-1.2969-46.691-1.2969 46.691-8.5781 5.6406v9.6484l-5.0898 4.2734v9.9102l-6.1797 3.4805v11.797l-6.4219 4.8125v205.01l-26.266-0.003906v-22.5h-47.148v-185.81h-6.793v-61.094l-22.141-22.164h-0.011719l-22.164 22.164v61.094h-6.7812v219.01h-21.441v-145.77h-1.0664v-20.363l-20.363-12.035-22.5 12.035v20.363h-54.66v93.254h-35.375v-47.184h-46.094v47.184h-70.738v-85.754h-46.094v60.012h-40.742v58.98h-41.809v54.289l-0.82812-0.003907h0.82812v12.156h0.023438v7.9805h1074.8v-25.031h-0.019531z"/>
 <path d="m622.71 415.8 0.039062 1.2578 0.023438-1.2578z"/>
 <path d="m799.57 549.86 0.085938 0.011719 0.082031-0.011719z"/>
</svg>
