<?xml version="1.0" encoding="UTF-8"?>
<svg width="1200pt" height="1200pt" version="1.1" viewBox="0 0 1200 1200" xmlns="http://www.w3.org/2000/svg">
 <path d="m1138.8 664.07h-44.484v91.047h-7.2852v-32.004h-44.461v32.004h-7.2695v-70.645h-44.484v70.645h-5.8203v-87.398h-44.473v87.398h-5.0898v-41.52h-26.242v-61.969h-67.082v40.824h-16.031v62.664h-9.457v-43.719h-29.172v43.719h-7.2695v-193.86h-13.141v-34.262h-42.266v228.12h-16.773v-260.93h-42.277v260.93h-7.2969v-134.1h-6.5391v-123.18h-5.8438v-55.402h-29.879v72.156h-6.5664v240.53h-13.848v-130.41h-7.0664v-45.203h-3.9609v-31.332h-2.1602v-8.9141h-23.184v8.9141h-2.1602v31.332h-3.9492v45.203h-7.0781v82.367h-8.75v-107.93h-42.273v155.96h-14.449v-260.15h-6.6602l-4.0547-76.535h-1.4414l-4.043 76.535h-35.879l-16.371 116.63v143.52h-11.734v-139.15h-60.266v139.15h-13.113v-73.91h-36.445v73.91h-9.8398v-37.105h-23.328v-99.133h-58.32v136.24h-13.848v-53.906h-9.2539v-24.227h-23.758v24.227h-9.2656v53.906h-24.047v-72.109h-13.117v-24.539h-45.191v101.82h0.91406v21.285h1077.7v-26.457h-0.55078z"/>
</svg>
