<?xml version="1.0" encoding="UTF-8"?>
<svg width="1200pt" height="1200pt" version="1.1" viewBox="0 0 1200 1200" xmlns="http://www.w3.org/2000/svg">
 <path d="m1139.3 707.69v-13.223h-13.934v-53.398l-51.336-0.003906v66.91l-13.535 0.058594v-120.58l-7.8945 2.0273-0.003906-28.355-9.0234 2.7852v-8.4258h-0.23828l-4.8359-12.406h-13.883l-3.7578 12.312v0.097656h-0.046875v31.98h-21.07v120.86l-12.227 0.070313-0.003906-152.07h-37.727v-35.629h-55.367v175.54h-10.141v-32.484h-47.688v45.301l-5.2422 0.023437v-114.5h-28.824v114.64l-8.207 0.035156-0.003906-190.64-10.309-10.512v-6.3477l-7.5977-7.7383h-1.1406v-8.4102h-38.258v8.4102h-1.1875l-7.7148 7.7383v6.5156l-10.309 10.344v191l-8.0508 0.035156v-156.97h-32.293v157.12l-7.5234 0.035157v-141.61h-21.816l0.003907 141.71-7.5234 0.035156-0.003906-241.66s-39.035-4.9805-44.016 6.2891c-4.5117 10.246-3.2383 192.45-2.8672 235.6l-6.2148 0.023438v-113.87h-28.297v114l-10.105 0.046875v-172.2h-6.2891v-69.18h-4.1875v64.285h-32.578v4.8945h-7.0664v172.43l-12.77 0.070312v-78.348h-8.3867v-40.176h-12.227v19.559h-16.066v99.133l-5.2422 0.023437v-71.207l-16.465-33.539h-14.461v104.88l-6.4688 0.023437-0.003906-131.11-4.6914-61.043h-26.426l-3.8516 41.914h-19.02l-4.4766 45.324h-6.5273l-4.6914 33.539v71.688l-2.4375 0.011719v-197.47h-23.93v197.58h-1.4023v-41.41h-28.824v41.547l-2.6172 0.011719v-91.871l-47.672-0.003907v92.102l-5.2422 0.023437v-44.438h-24.637v-38.258h-28.297v57.648h-11.52v-71.27h-7.8594v-8.375h-28.297v79.645l-61.309 0.003906v25.777l-2.4375 0.011719h0.86328v20.195h1077.8v-25.113z"/>
</svg>
