<?xml version="1.0" encoding="UTF-8"?>
<svg width="1200pt" height="1200pt" version="1.1" viewBox="0 0 1200 1200" xmlns="http://www.w3.org/2000/svg">
 <path d="m1138.4 620.03h-52.211v172.24h-12.938v-172.24h-5.7812v-40.824h-40.684v40.824h-5.7695v172.24h-21.84v-301.38h-4.8125v-19.883h-14.617l-4.1133-102.6h-3.2422l-4.1172 102.6h-14.602v19.883h-6.7227v237.39h-37.02v-119.63h-43.68v183.62h-10.449v-71.582h-6.8789v-11.398h-29.938v11.398h-6.8672v71.582h-22.785v-183.62h-36.086v-122.5h-3.8633v-27.527h-29.363v27.527h-15.191v306.12h-8.7852v-305.17h-8.6172v-27.543h-33.156v27.543h-10.449v305.17h-8.3047v-282.39h-6.7188v-17.098h-22.934l-3.3828-84.504h-3.2422l-3.3945 84.504h-28.703v17.098h-10.91v79.766h-46.535v136.73h-25.164v65.895h-21.828v-195.01h-21.852v44.602h-21.828v150.41h-5.6992v-150.41h-11.16v-152.86l-8.1719-4.0938-3.2656-81.371h-3.2266l-3.0742 76.598-7.8945-3.9375v23.27l-24.938 9.4688v283.33h-7.3438v-168.23h0.097657l-0.097657-0.68359v-0.40625h-0.058593l-16.391-107.05h-0.55469l-16.391 107.05h-0.046875v0.37109l-0.10938 0.71875h0.10938v168.23h-13.645v-175.34h-25.332v-75.961h-0.050781v-21.266l-21.395 21.266h-21.012l-17.988-21.266v21.266h-0.3125v251.3h-21.215v-210.86l-12.336-17.062h-32.293l-9.8047 17.062v210.86h-18.672v-237.39h-42.418v62.043h-12.648v188.27h0.51562v26.414h1076.1v-26.414h0.082031z"/>
</svg>
