<?xml version="1.0" encoding="UTF-8"?>
<svg width="1200pt" height="1200pt" version="1.1" viewBox="0 0 1200 1200" xmlns="http://www.w3.org/2000/svg">
 <path d="m1137.9 694.49h-15.023l-0.003906-125.26h-49.656v45.133h-21.59v45.793h-49.891v-53.23l-16.262-11.281v-1.1172h-6.0859v1.1172l-16.246 11.281v87.562h-11.809v-105.17h-23.617v70.789h-15.742v34.367h-13.996l0.003906-123.53h-23.617v123.54h-13.883v-121.86h-5.7852v-8.0898h-28.402v8.0898h-7.9219v34.199h-36.613v87.672h-11.441l0.007812-34.379h-23.605v34.367h-6.1094l0.003906-123.54h-23.617v123.54h-13.117v-100.78h-23.625v46.031c-1.6914-6.2773-3.1211-12.742-4.9805-18.91-25.379-84.012-61.176-139.37-98.195-151.86-5.5195-1.8594-11.113-2.7969-16.609-2.7969-33 0-58.309 33.77-73.754 62.113-22.656 41.566-39.023 84.371-50.438 130.12h-6.625v20.113h-7.5859v-5.2578l0.007812-13.141h-34.945v-53.23l-16.262-11.281v-1.1172h-6.0977v1.1172l-16.262 11.281v53.23h-0.19141v34.367h-15.152v-105.19h-23.59v41.195h-10.633v29.629h-5.1133v4.0547h-18.035v30.312h-17.891v-121.86h-5.7852v-8.0898h-28.414v8.0898h-7.8945v59.977h-26.305v61.883h-9.4688v-29.27h-63.121v29.27h-7.8477v-36.109h-22.141v20.113h-9.6016v15.996h-17.039v39.348h1079.4v-39.359h-1.7617zm-563.4 0h-241.88 119.2v-36.109h-0.058594c11.016-42.84 26.688-83.34 48.254-122.91 23.352-42.793 47.566-60.492 72.215-52.188 31.824 10.727 64.934 63.758 88.586 141.9 2.8086 9.2891 5.0742 18.926 7.4766 28.465h-35.773v40.836h-58.012z"/>
</svg>
