<?xml version="1.0" encoding="UTF-8"?>
<svg width="1200pt" height="1200pt" version="1.1" viewBox="0 0 1200 1200" xmlns="http://www.w3.org/2000/svg">
 <path d="m1048.3 667.78v-66.531l-57.191-14.289v96.285h-31.094v-215.04h-9.457v-9.0586h-7.9297v9.0586h-5.5938v-29.352h-3.7422v29.352h-16.309v-8.3633h-18.66v8.3633h-7.332v170.98h-42.266v-106.32h-16.141v-30.586h-6.0703v30.586h-15.371v-8.6641h-10.273v8.6641h-6.8633v43.523h-11.316v-40.535h-8.3984v40.535h-10.262v-13.5h-22.848v13.5h-9.9727v103.21h-32.34v-133.68l-63.418-19.27v85.176h-15.543v-44.762l-34.824 13.68v56.57h-23.625v-82.691h-24.867v-57.207h-9.9453v-26.109h-8.7109v25.488h-7.4531v57.828h-31.094v115.03h-44.758v-71.508h-12.863v-35.258h-3.7227v35.258h-10.27v-9.6016h-6.9844v9.6016h-7.8242v-65.281h-10.355v-26.387h-7.0078v26.387h-9.3242v-4.4766h-13.512v4.4766h-10.262v-17.531h-6.5391v17.531h-10.766v113.79h-19.285v46.621h-14.289v-88.91h-14.93v11.195h-10.199v-12.562h-17.246v12.562h-9.8008v-19.895h-3.7227v19.895h-5.6641v43.836h-18.035v-111.61h-11.184v-14.918h-9.8867v-10.535h-15.398v10.535h-7.4492v-32.914h-3.7344v32.914h-10.727v-10.535h-22.379v10.535h-11.258v228.29h960v-93.371z"/>
</svg>
