<?xml version="1.0" encoding="UTF-8"?>
<svg width="1200pt" height="1200pt" version="1.1" viewBox="0 0 1200 1200" xmlns="http://www.w3.org/2000/svg">
 <path d="m1136.6 774.34h-0.80469v-90.289h-50.762v40.285h-29.004v50.363l-8.8555 0.046876v-132.6h-38.688v132.78l-6.4453 0.011719v-73.172h-16.117v-19.332h-33.047v19.332h-21.758v37.078h-34.645v18.527h-22.031v-116.29l-10.211-5.6406h-13.68l-11.301 0.003906-10.211 5.6406v134.68l-11.543 0.046875v-37.754h-20.129v-62.844h-35.473v-80.988h-2.4102v-46.332h-10.066v-4.0312l-9.6719-8.8555v-7.6562h-5.6562v7.6562l-9.6602 8.8555v4.0312h-10.078v46.332h-2.4258v143.03h-17.723v39.145l-4.3203 0.023437v-150.39h-6.457v-50.352h-47.148v200.96l-10.176 0.058594v-110.76l-47.93-41.102h-3.6367v152.07l-7.3438 0.035156-25.738-169.98v-67.141l8.5938-60.719h7.5234l10.223-5.3516-4.293-2.1406v-5.3867l13.969-3.2266-10.211-4.8125-2.6875-2.6875v-4.3086s-18.266-6.9844-24.168-7.5117v-2.6875l4.8242-3.2266-4.8242-4.8359-9.6836-2.1484v-30.086h-2.6875l-0.0625-0.003906h-2.6875v30.086l-9.6719 2.1484-4.8359 4.8359 4.8359 3.2266v2.6875c-5.9023 0.52734-24.18 7.5117-24.18 7.5117v4.3086l-2.6875 2.6875-10.211 4.8125 13.957 3.2266-0.003906 5.3906-4.2852 2.1484 10.211 5.3516h7.5234l8.5938 60.719v67.141l-14.844 98.039h-29.473v72.383l-8.0508 0.035157v-72.422h-41.902v72.637h-4.0195v-196.74h-4.8359v-11.688h-7.2461l-7.2461-8.0508h-6.6875l-7.2461 8.0508h-7.2461v11.688h-4.8398v110.39h-9.4453v-16.105h-22.559v16.105h-19.344v86.762l-13.297 0.085937v-125.91h-16.906v-100.73h-7.2461v-16.117h-7.2461v-8.0625l-44.305-5.6406v12.887h-4.0312v192.17h-22.164v27.395h-12.887v-95.891h-8.0625v-16.906h-17.734v16.906h-16.117v120.61l-8.8555 0.035156-0.011718-191.54h-62.867v63.66h-14.508v136.18h1.0078v4.1875h0.023438v7.957h1072.3v-24.973h-0.035156z"/>
</svg>
