<?xml version="1.0" encoding="UTF-8"?>
<svg width="1200pt" height="1200pt" version="1.1" viewBox="0 0 1200 1200" xmlns="http://www.w3.org/2000/svg">
 <path d="m1136.4 672.95v-30.613h-21.023v30.613h-8.1016v-36.926h-2.543v-74.387h-0.35938v-35.734h-5.3281l-0.88672-33.902-0.86328 33.91h-8.832l-0.87891-33.91-0.86328 33.91h-6.4219v35.734h-9.8398v74.387h-3.6484v36.926h-9.8633v-93.707h-21.035v63.098h-14.016v30.613h-13.066v-111.62h-44.258v40.211h-19.223v40.801h-44.449v-47.426l-14.496-10.043v-0.99609h-5.4258v0.99609l-14.484 10.043v78.023h-5.8906l-4.6289 0.003907v-93.707h-21.035v63.098h-14.027v30.613h-12.48v-110.06h-21.023v110.06h-14.531v-28.262l-29.582-0.003906v-49.859h-38.398v78.121h-10.188v-30.613h-21.035v30.613h-5.4492v-110.06h-21.035v110.06h-11.688v-89.809h-21.035v89.809h-8.8125v-32.172h-19.727v17.914h-6.3125v-129.3l-23.363-16.211v-1.5977h-8.7617v1.5977l-23.375 16.211v143.55h-3.8867v-89.809h-21.039v89.809h-7.0078v-89.809h-21.035v89.809h-9.625v-32.172h-19.727v17.914h-6.7422v-16.367h-31.152v-47.426l-14.484-10.043v-0.99609h-5.4375v0.99609l-14.484 10.043v47.426h-0.17969v30.613h-13.488v-93.707h-21.023v63.098h-14.027v30.613h-9.875l-0.003907-137.44-19.355-20.23-0.57422-23.27-0.60156 23.27-19.57 20.23v109.19h-27.613v-49.859h-38.41v78.121h-10.176v-30.613h-21.023v30.613h-12.039c-0.76953-16.164-1.6562-33.793-2.0039-38.148-0.68359-8.4727-5.0742-82.105-5.0742-82.105h-3.4336l-1.3086-50.773-1.2969 50.773h-17.723l-1.2969-50.773-1.2969 50.773h-3.4453s-4.3906 73.633-5.0742 82.105c-0.34766 4.3438-1.2227 21.984-2.0039 38.148h-12.047v-32.172h-19.727v17.914h-8.5586v14.258h-15.191v35.051h1075.9v-35.051z"/>
</svg>
