<?xml version="1.0" encoding="UTF-8"?>
<svg width="1200pt" height="1200pt" version="1.1" viewBox="0 0 1200 1200" xmlns="http://www.w3.org/2000/svg">
 <path d="m1136.5 728.1h-3.1445v-6.9023h-11.605v-17.387h-9.2617v-47.52h-23.16v32.461h-17.016v-35.547h-17.016v-125.16h-13.898v-29.363h-3.0938v29.363h-16.992v174.61h-16.609v-108.18h-7.1641v-28.668l-10.211 3.9336v-29.352h-4.6562v31.129l-31.742 12.215v10.742h-6.2617v64.523h-46.598v32.09h-17.387v-119.79h-8.5078v-24.719h-1.5352v24.719h-10.824v139.86h-32.762v-15.445h13.91v-86.949h-51v-8.918h-9.2656v-10.297h9.2656v-9.2734h-16.43v-9.4102h-25.105v9.4102h-16.402v9.2734h9.2539v10.297h-9.2539v8.918h-51v86.949h13.922v17.75h-32.172v-43.273h-19.488v-154.52h-22.02v-15.457h-14.113v-13.125h-4.6211v13.125h-6.9609v-30.91h-5.4102v30.91h-18.348v15.457h-22.02v88.082h-10.633v63.359h-9.2656v27.816h-13.906v-229.49l-29.363 18.551h-33.984v-37.105h-3.875v37.105h-2.3281l-29.355-18.551v215.57h-10.043v-151.43h-37.078v100.45h-20.883v57.949h-30.91v-73.418h-13.117v-10.809h-23.184v10.809h-11.59v102h-6.9609v-11.578h-9.2773v-38.652h-34.773v27.828h-27.039v-61.031h-33.973v12.348h-6.9688v-64.895h-10.035v-16.992h-3.8867v16.992h-16.992v134.45h-13.906v-17.004h-26.652v3.4805h-16.227v26.594h-0.082031l0.023437 25.008h1073v-25.008z"/>
</svg>
